<?xml version="1.0" encoding="UTF-8"?>
<svg id="Capa_1" xmlns="http://www.w3.org/2000/svg" version="1.1" viewBox="0 0 200 200">
  <!-- Generator: Adobe Illustrator 29.5.1, SVG Export Plug-In . SVG Version: 2.1.0 Build 141)  -->
  <defs>
    <style>
      .st0 {
        fill: #fff;
      }
    </style>
  </defs>
  <rect x="0" y="0" width="200" height="200" rx="100" ry="100"/>
  <g>
    <path class="st0" d="M124.27,109.03c-1.14,1.62-2.59,3.13-4.33,4.51-5.25,4.14-12.33,6.43-19.94,6.43s-14.69-2.28-19.94-6.43c-4.74-3.74-7.34-8.55-7.34-13.55s2.61-9.81,7.34-13.55c5.25-4.14,12.33-6.43,19.94-6.43s14.69,2.28,19.94,6.43c1.74,1.37,3.19,2.89,4.33,4.5l6.44-3.64c-5.79-8.72-17.37-14.66-30.71-14.66-19.14,0-34.65,12.24-34.65,27.35s15.52,27.35,34.65,27.35c13.34,0,24.91-5.95,30.71-14.66l-6.44-3.64Z"/>
    <path class="st0" d="M53.27,112.29v20.82h-17.61v-66.21h14.87c10.47,0,20.27,4.78,26.25,12.79,1.85-1.32,3.88-2.48,6.06-3.47-7.28-9.97-19.37-16-32.32-16h-21.53v79.52h30.93v-9.71c9.84,8.01,23.84,12.36,39.88,10.19-22.38-.13-38.92-11.71-46.54-27.92Z"/>
    <path class="st0" d="M140.07,60.26v9.71c-9.84-8.01-23.84-12.36-39.88-10.19,22.38.13,38.92,11.71,46.54,27.92v-20.82h17.61v66.21h-14.87c-10.48,0-20.28-4.79-26.27-12.8-1.85,1.32-3.88,2.49-6.06,3.47,7.28,9.98,19.37,16.01,32.33,16.01h21.53V60.26c-10.41,0-30.93,0-30.93,0Z"/>
  </g>
</svg>