<?xml version="1.0" encoding="utf-8"?>
<!-- Generator: Adobe Illustrator 25.2.0, SVG Export Plug-In . SVG Version: 6.00 Build 0)  -->
<svg version="1.1" id="Capa_1" xmlns="http://www.w3.org/2000/svg" xmlns:xlink="http://www.w3.org/1999/xlink" x="0px" y="0px"
	 viewBox="0 0 532 531.6" style="enable-background:new 0 0 532 531.6;" xml:space="preserve">
<style type="text/css">
	.st0{fill:#FFFFFF;}
</style>
<path class="st0" d="M532,265.6c0-146.7-119.3-266-266-266S0,118.8,0,265.6s119.3,266,266,266S532,412.3,532,265.6z M248.1,357.4
	l-102.5-103c-5-5-7.3-11.2-7.3-17.9c0-6.7,2.2-12.9,7.3-17.9c9.5-9.5,25.8-9.5,35.3,0l85.1,85.7l85.1-85.1c9.5-9.5,25.8-9.5,35.3,0
	c9.5,9.5,9.5,25.8,0,35.3l-102.5,103c-4.5,4.5-11.2,7.3-17.9,7.3C259.3,364.7,253.1,361.9,248.1,357.4L248.1,357.4z"/>
</svg>
